<svg width="64" height="74" viewBox="0 0 64 74" fill="none" xmlns="http://www.w3.org/2000/svg">
<path fill-rule="evenodd" clip-rule="evenodd" d="M0.18457 37.8563C0.85407 36.7595 0.79227 35.468 1.11157 34.279C3.85137 24.1725 10.1344 17.1205 19.7134 12.9283C21.8455 11.9955 23.6686 12.6208 24.4514 14.4248C25.2136 16.1878 24.3381 17.8585 22.1545 18.7913C11.4631 23.3628 5.36547 33.8793 6.84867 45.185C8.27007 55.9988 17.0251 64.7113 28.2521 66.4743C40.6636 68.4218 52.9 60.683 56.4329 48.6598C59.9349 36.7185 53.8785 24.029 42.2704 18.9655C41.7142 18.7298 41.1271 18.5248 40.643 18.1865C39.3967 17.3255 38.995 15.542 39.6851 14.2095C40.4473 12.7335 42.0953 12.0878 43.7742 12.7233C49.5422 14.9373 54.239 18.5658 57.8749 23.5268C71.4606 42.028 60.6353 68.6165 37.9547 72.5115C20.0533 75.5763 4.15007 64.6805 0.58627 46.9275C0.50387 46.538 0.72017 46.0153 0.18457 45.7693C0.18457 43.135 0.18457 40.4905 0.18457 37.8563Z" fill="#E74C3C"/>
<path fill-rule="evenodd" clip-rule="evenodd" d="M34.3187 0.24902C35.6474 1.25352 36.0285 2.55527 36.0079 4.21577C35.9255 11.032 35.977 17.8483 35.9667 24.6645C35.9667 25.382 35.8843 25.997 36.8731 26.284C42.3527 27.8625 44.8762 31.9215 45.9062 37.19C46.2873 39.1478 46.2049 41.126 46.2873 43.1043C46.3388 44.2318 45.9268 44.4573 44.8865 44.447C37.9237 44.406 30.9712 44.4675 24.0084 44.3855C22.5046 44.365 22.3192 44.8365 22.5252 46.169C23.7818 54.3075 30.1575 57.936 38.5005 55.2095C40.3854 54.5945 42.0643 53.5695 43.9183 52.36C43.9183 53.9488 43.8874 55.3018 43.9286 56.6445C43.9595 57.3518 43.4754 57.608 43.0016 57.854C37.2851 60.8675 31.342 61.4108 25.2856 59.084C22.0514 57.8438 19.7957 55.3633 18.5082 52.196C16.2319 46.579 16.0156 40.839 18.3331 35.181C20.2077 30.6198 23.5449 27.4525 28.4168 26.1713C29.5395 25.874 29.5704 25.3 29.5601 24.4288C29.5395 17.6125 29.5807 10.7963 29.5189 3.98002C29.5086 2.36052 29.9103 1.09977 31.3214 0.23877C32.3308 0.24902 33.3299 0.24902 34.3187 0.24902ZM31.6819 39.8448C34.329 39.8448 36.9761 39.855 39.6335 39.8345C40.0764 39.8345 40.5708 40.0293 40.6944 39.2093C41.1785 35.8985 38.5932 31.6858 35.3178 30.5685C29.6425 28.6415 23.1329 32.9978 22.6591 38.9838C22.587 39.8448 22.9681 39.8448 23.5758 39.8448C26.2744 39.8448 28.9833 39.8448 31.6819 39.8448Z" fill="#E74C3C"/>
</svg>
